<svg width="144" height="128" viewBox="0 0 144 128" fill="none" xmlns="http://www.w3.org/2000/svg">
<g filter="url(#filter0_d)">
<path d="M5 55.5L37 0.5H109L139 62.5L106.5 118H37L5 55.5Z" fill="#B5BDF4"/>
<path d="M37 0.5L87.5 27M37 0.5L5 55.5M37 0.5H109M87.5 27L24.5 62.5M87.5 27L109 0.5M87.5 27L139 62.5M24.5 62.5L5 55.5M24.5 62.5L87.5 101M24.5 62.5L37 118M5 55.5L37 118M109 0.5L139 62.5M139 62.5L87.5 101M139 62.5L106.5 118M87.5 101L106.5 118M87.5 101L37 118M106.5 118H37" stroke="#030202"/>
<path d="M87.719 28.3599L86.7576 100.508L24.907 63.3489L87.719 28.3599Z" fill="#B1BBE8" stroke="#1B1B13"/>
</g>
<defs>
<filter id="filter0_d" x="0.43042" y="0" width="143.136" height="130.071" filterUnits="userSpaceOnUse" color-interpolation-filters="sRGB">
<feFlood flood-opacity="0" result="BackgroundImageFix"/>
<feColorMatrix in="SourceAlpha" type="matrix" values="0 0 0 0 0 0 0 0 0 0 0 0 0 0 0 0 0 0 127 0"/>
<feOffset dy="4"/>
<feGaussianBlur stdDeviation="2"/>
<feColorMatrix type="matrix" values="0 0 0 0 0 0 0 0 0 0 0 0 0 0 0 0 0 0 1 0"/>
<feBlend mode="normal" in2="BackgroundImageFix" result="effect1_dropShadow"/>
<feBlend mode="normal" in="SourceGraphic" in2="effect1_dropShadow" result="shape"/>
</filter>
</defs>
</svg>
