<svg width="173" height="387" viewBox="0 0 173 387" fill="none" xmlns="http://www.w3.org/2000/svg">
<g filter="url(#filter0_d)">
<path d="M116.603 322.004L130 291.512L149.974 336.974L141.5 187.282L134 175.085L141.5 157.344L129.323 137.721L136.5 121.307L126 105.784V1H101.5L101 105.784L92 121.307L98 139.603L88.5 157.344L94.5 175.085L86.5 187.282L84.0636 235.516L115.5 298.719L116.603 322.004Z" fill="#38372D"/>
<path d="M70 163.997H47.5V207.241L5 298.719H115.5L84.0636 235.516L70 207.241V163.997Z" fill="#38372D"/>
<path d="M92 378L116.603 322.004L115.5 298.719H5V378H92Z" fill="#38372D"/>
<path d="M92 378H168L149.974 336.974L130 291.512L116.603 322.004L92 378Z" fill="#38372D"/>
<path d="M92 378H168L149.974 336.974M92 378L116.603 322.004M92 378H5V298.719M115.5 298.719L116.603 322.004M115.5 298.719H5M115.5 298.719L84.0636 235.516M116.603 322.004L130 291.512L149.974 336.974M5 298.719L47.5 207.241V163.997H70V207.241L84.0636 235.516M149.974 336.974L141.5 187.282L134 175.085L141.5 157.344L129.323 137.721L136.5 121.307L126 105.784V1H101.5L101 105.784L92 121.307L98 139.603L88.5 157.344L94.5 175.085L86.5 187.282L84.0636 235.516" stroke="url(#paint0_linear)"/>
</g>
<defs>
<filter id="filter0_d" x="0.5" y="0.5" width="172.266" height="386" filterUnits="userSpaceOnUse" color-interpolation-filters="sRGB">
<feFlood flood-opacity="0" result="BackgroundImageFix"/>
<feColorMatrix in="SourceAlpha" type="matrix" values="0 0 0 0 0 0 0 0 0 0 0 0 0 0 0 0 0 0 127 0"/>
<feOffset dy="4"/>
<feGaussianBlur stdDeviation="2"/>
<feColorMatrix type="matrix" values="0 0 0 0 0 0 0 0 0 0 0 0 0 0 0 0 0 0 1 0"/>
<feBlend mode="normal" in2="BackgroundImageFix" result="effect1_dropShadow"/>
<feBlend mode="normal" in="SourceGraphic" in2="effect1_dropShadow" result="shape"/>
</filter>
<linearGradient id="paint0_linear" x1="114.5" y1="-5.65293" x2="114.5" y2="384.653" gradientUnits="userSpaceOnUse">
<stop offset="0.0416667" stop-color="#414035"/>
<stop offset="1"/>
</linearGradient>
</defs>
</svg>
